# xmcd
#
# Track frame offsets:
#	150
#	31992
#	45279
#	60116
#	74361
#	90441
#	108686
#	127840
#	144637
#	162636
#	184954
#	203875
#
# Disc length: 2959 seconds
#
# Revision: 4
# Processed by: cddbd v1.5.2PL0 Copyright (c) Steve Scherf et al.
# Submitted via: audiograbber 1.83.01
#
DISCID=a20b8d0c
DTITLE=2Pac - The Here After
DYEAR=1999
DGENRE=Rap
TTITLE0=2Pac, The Down Ass Niggas - Dedication
TTITLE1=2Pac, Assasin, Daddy Marco - Real Bad Boys
TTITLE2=2Pac, Notorious BIG, C.H. - Be The Realist
TTITLE3=2Pac, DAN Hustlers - Ooh Wee
TTITLE4=2Pac, DAN Hustlers - California Hustler
TTITLE5=2Pac, D'Wayne Wiggins, Akil, Ashley - Raise Up Off N.U.T.S.
TTITLE6=2Pac, DAN Hustlers - Monday Morning
TTITLE7=2Pac, Notorious BIG - Stop The Gun Fight
TTITLE8=2Pac, B.P. - West Coast
TTITLE9=2Pac, DAN Hustlers - Never Say Never
TTITLE10=2Pac - Criminal
TTITLE11=2Pac, The Funky Aztecs - Slippin' Into Darkness
EXTD=www.RapMusicGuide.com\n
EXTT0=
EXTT1=
EXTT2=
EXTT3=
EXTT4=
EXTT5=
EXTT6=
EXTT7=
EXTT8=
EXTT9=
EXTT10=
EXTT11=
PLAYORDER=
